<?xml version="1.0" standalone="no"?>
<!DOCTYPE svg PUBLIC "-//W3C//DTD SVG 20010904//EN"
 "http://www.w3.org/TR/2001/REC-SVG-20010904/DTD/svg10.dtd">
<svg version="1.0" xmlns="http://www.w3.org/2000/svg"
 width="700.000000pt" height="700.000000pt" viewBox="0 0 700.000000 700.000000"
 preserveAspectRatio="xMidYMid meet">
<metadata>
Created by potrace 1.11, written by Peter Selinger 2001-2013
</metadata>
<g transform="translate(0.000000,700.000000) scale(0.100000,-0.100000)"
fill="#000000" stroke="none">
<path d="M3215 6984 c-508 -66 -929 -267 -1294 -619 -226 -219 -403 -498 -521
-826 -32 -87 -85 -274 -95 -330 -3 -19 -12 -65 -20 -104 -50 -255 -53 -594 -9
-895 26 -176 87 -389 163 -574 65 -158 120 -253 286 -491 78 -112 351 -507
417 -603 24 -35 61 -89 84 -120 36 -51 558 -805 815 -1177 310 -450 430 -620
439 -620 5 0 132 178 282 395 151 217 299 431 329 475 31 44 219 316 419 605
411 594 384 554 630 910 238 343 230 332 282 425 89 162 179 401 223 590 27
115 33 148 40 210 4 28 10 75 14 105 20 135 18 480 -4 628 -3 17 -7 44 -9 60
-2 15 -9 54 -15 87 -6 33 -13 75 -16 94 -3 19 -8 37 -10 41 -2 3 -6 18 -8 31
-9 49 -49 176 -89 284 -118 318 -275 565 -502 790 -326 322 -733 534 -1171
609 -49 8 -106 18 -125 21 -73 13 -436 12 -535 -1z m456 -228 c37 -4 75 -8 85
-10 11 -2 42 -7 69 -11 151 -22 371 -93 531 -173 209 -103 370 -218 534 -382
207 -205 361 -457 466 -762 33 -94 76 -259 88 -333 2 -16 7 -48 10 -70 4 -22
9 -49 11 -60 26 -123 24 -473 -5 -660 -5 -33 -11 -76 -14 -95 -11 -73 -47
-210 -88 -330 -74 -217 -165 -378 -412 -730 -29 -41 -199 -286 -377 -545 -179
-258 -351 -506 -381 -550 -31 -44 -200 -289 -378 -545 -177 -256 -326 -465
-331 -465 -5 0 -46 54 -92 120 -127 184 -907 1310 -968 1398 -51 74 -152 220
-243 352 -22 33 -45 64 -49 70 -15 19 -145 209 -261 380 -119 176 -211 352
-265 507 -35 101 -89 314 -97 384 -2 27 -7 56 -9 64 -18 66 -25 403 -11 555
48 527 276 1027 614 1346 79 75 301 249 317 249 4 0 20 9 36 21 105 74 428
205 580 234 12 2 28 6 37 9 9 3 37 7 62 10 25 3 56 8 70 11 14 3 66 8 115 11
50 4 91 8 93 9 4 4 197 -3 263 -9z"/>
<path d="M3409 5596 c-2 -2 -22 -6 -44 -9 -280 -37 -549 -269 -639 -550 -169
-527 218 -1065 766 -1068 309 -1 589 166 730 436 211 406 49 904 -362 1110
-56 28 -73 34 -170 62 -49 14 -270 29 -281 19z m242 -251 c174 -44 334 -192
400 -370 22 -59 35 -179 27 -252 -41 -400 -459 -633 -830 -464 -148 67 -283
234 -313 386 -5 22 -10 47 -12 55 -7 32 -3 147 6 196 39 200 184 367 376 435
31 11 76 22 98 26 23 3 43 7 45 8 9 8 148 -5 203 -20z"/>
<path d="M1980 1969 c-30 -4 -75 -10 -99 -14 -148 -18 -463 -82 -651 -131
-588 -155 -997 -373 -1153 -612 -51 -80 -69 -128 -73 -202 -15 -237 249 -468
736 -647 90 -33 367 -118 413 -127 12 -2 83 -18 157 -35 74 -16 151 -32 170
-35 19 -3 46 -8 60 -11 23 -5 92 -17 165 -29 17 -3 66 -10 110 -16 44 -6 91
-13 105 -15 100 -14 105 -15 265 -30 28 -3 66 -7 85 -10 19 -3 69 -7 110 -10
72 -4 160 -11 265 -20 312 -26 1401 -26 1700 0 100 9 211 17 225 17 8 0 80 6
160 14 80 8 170 17 200 20 30 2 66 7 80 9 14 3 43 7 65 10 22 2 56 6 75 9 19
3 71 10 115 17 110 15 460 85 575 114 612 156 1011 374 1124 614 53 115 40
245 -38 361 -209 311 -817 576 -1651 720 -66 11 -139 23 -161 26 -23 2 -52 7
-65 9 -74 14 -171 17 -199 5 -58 -24 -81 -111 -44 -167 22 -34 61 -50 159 -63
50 -6 102 -13 117 -15 367 -49 833 -169 1121 -289 329 -136 545 -302 561 -429
21 -172 -335 -374 -934 -528 -117 -30 -132 -33 -185 -44 -16 -3 -73 -15 -125
-25 -80 -16 -282 -52 -370 -65 -14 -2 -43 -6 -65 -10 -22 -3 -58 -7 -80 -10
-22 -2 -53 -6 -70 -9 -16 -2 -57 -7 -90 -11 -33 -3 -80 -8 -105 -10 -43 -4
-109 -11 -210 -20 -25 -2 -90 -7 -145 -10 -55 -3 -116 -8 -135 -10 -198 -23
-1257 -23 -1500 0 -19 2 -80 6 -135 10 -55 3 -120 8 -145 10 -25 3 -72 7 -105
9 -33 3 -78 7 -100 10 -22 3 -69 8 -105 11 -36 3 -90 10 -120 15 -30 5 -82 11
-115 15 -33 3 -67 8 -75 10 -8 2 -33 6 -55 10 -48 7 -262 43 -290 49 -169 35
-231 49 -236 52 -4 2 -24 6 -45 10 -48 7 -313 84 -414 119 -369 130 -592 293
-573 419 21 138 232 298 581 441 245 99 667 215 917 250 22 3 65 10 95 15 68
12 92 15 205 30 50 7 102 19 117 26 81 41 81 166 0 203 -26 12 -91 12 -172 0z"/>
</g>
</svg>
