<svg xmlns="http://www.w3.org/2000/svg" style="display: none;">
  
    <symbol id="icon-add" viewBox="0 0 512 512">
      <path d="m389 230c10 0 15 9 15 26c0 17-5 26-15 26c0 0-107 0-107 0c0 0 0 107 0 107c0 10-9 15-26 15c-17 0-26-5-26-15c0 0 0-107 0-107c0 0-107 0-107 0c-10 0-15-9-15-26c0-17 5-26 15-26c0 0 107 0 107 0c0 0 0-107 0-107c0-10 9-15 26-15c17 0 26 5 26 15c0 0 0 107 0 107c0 0 107 0 107 0"/>
    </symbol>
  
    <symbol id="icon-edit" viewBox="0 0 512 512">
      <path d="m424 87c11 11 19 22 24 33c5 11 8 19 8 24c0 0 0 9 0 9c0 0-129 129-129 129c0 0-149 147-149 147c0 0-122 27-122 27c0 0 26-123 26-123c0 0 148-148 148-148c0 0 129-129 129-129c19-4 40 6 65 31m-253 328c0 0 12-13 12-13c0-15-9-31-26-48c-8-7-16-13-23-18c-8-4-14-6-18-6c0 0-7-1-7-1c0 0-12 12-12 12c0 0-9 41-9 41c10 5 17 11 24 17c8 9 14 17 18 25c0 0 41-9 41-9"/>
    </symbol>
  
    <symbol id="icon-view" viewBox="0 0 512 512">
      <path d="m256 113c31 0 62 4 91 12c29 9 53 20 72 32c19 13 36 26 51 40c14 13 25 25 32 36c7 11 10 18 10 23c0 5-3 12-10 23c-7 10-18 22-32 36c-15 14-32 27-51 40c-19 12-43 23-72 32c-29 8-60 12-91 12c-31 0-62-4-91-12c-29-9-53-20-72-32c-19-13-36-26-51-40c-14-14-25-26-32-36c-7-11-10-18-10-23c0-5 3-12 10-23c7-11 18-23 32-36c15-14 32-27 51-40c19-12 43-23 72-32c29-8 60-12 91-12m0 253c31 0 58-11 80-33c23-21 34-47 34-77c0-31-11-57-34-78c-22-22-49-33-80-33c-31 0-58 11-80 33c-23 21-34 47-34 78c0 30 11 56 34 77c22 22 49 33 80 33m0-110c3 3 9 3 19 1c10-2 18-4 26-6c7-1 11 0 12 5c0 15-5 28-17 38c-11 11-24 16-40 16c-16 0-29-5-40-16c-11-10-16-23-16-38c0-16 5-29 16-39c11-11 24-16 40-16c5 0 6 4 5 11c-1 8-3 16-6 25c-3 8-2 14 1 19"/>
    </symbol>
  
    <symbol id="icon-locations" viewBox="0 0 512 512">
      <path d="m256 51c36 0 66 13 91 38c25 24 37 55 37 90c0 36-11 78-32 125c-21 46-42 84-64 114c0 0-32 43-32 43c-3-4-8-10-14-18c-6-8-16-23-31-46c-14-22-27-44-38-66c-12-22-22-47-31-76c-9-28-14-53-14-76c0-35 12-66 37-90c25-25 56-38 91-38m0 199c19 0 36-7 49-21c14-13 21-30 21-49c0-19-7-35-21-48c-13-14-30-20-49-20c-19 0-35 6-49 20c-13 13-20 29-20 48c0 19 7 36 20 49c14 14 30 21 49 21"/>
    </symbol>
  
    <symbol id="icon-categories" viewBox="0 0 512 512">
      <path d="m410 230c7 0 13 3 18 8c5 5 7 11 7 18c0 7-2 13-7 18c-6 5-12 8-18 8c0 0-308 0-308 0c-6 0-12-3-18-8c-5-5-7-11-7-18c0-7 2-13 7-18c5-5 11-8 18-8c0 0 308 0 308 0m-308-51c-6 0-12-2-18-7c-5-6-7-12-7-18c0-7 2-13 7-18c5-5 11-8 18-8c0 0 308 0 308 0c7 0 13 3 18 8c5 5 7 11 7 18c0 6-2 12-7 18c-6 5-12 7-18 7c0 0-308 0-308 0m308 154c7 0 13 2 18 7c5 6 7 12 7 18c0 7-2 13-7 18c-6 5-12 8-18 8c0 0-308 0-308 0c-6 0-12-3-18-8c-5-5-7-11-7-18c0-6 2-12 7-18c5-5 11-7 18-7c0 0 308 0 308 0"/>
    </symbol>
  
    <symbol id="icon-delete" viewBox="0 0 512 512">
      <path d="m87 201c42 24 98 36 169 36c71 0 127-12 169-36c0 0-28 249-28 249c0 4-6 10-18 18c-11 7-28 15-51 22c-23 7-47 11-72 11c-25 0-49-4-72-11c-22-7-39-15-51-22c-11-8-18-14-18-18c0 0-28-249-28-249m250-154c32 6 59 16 81 28c22 13 33 25 33 37c0 0 0 5 0 5c0 20-20 36-58 50c-38 14-84 21-137 21c-53 0-99-7-137-21c-38-14-58-30-58-50c0 0 0-5 0-5c0-12 11-24 33-37c22-12 49-22 81-28c0 0 22-24 22-24c7-9 19-14 35-14c0 0 48 0 48 0c17 0 29 5 35 14c0 0 22 24 22 24m-28 57c0 0 43 0 43 0c-31-37-49-59-53-64c-5-6-10-8-16-8c0 0-53 0-53 0c-7 0-13 2-16 8c0 0-54 64-54 64c0 0 43 0 43 0c0 0 33-33 33-33c0 0 42 0 42 0c0 0 31 33 31 33"/>
    </symbol>
  
</svg>
